<?xml version="1.0" standalone="no"?><!DOCTYPE svg PUBLIC "-//W3C//DTD SVG 1.1//EN" "http://www.w3.org/Graphics/SVG/1.1/DTD/svg11.dtd"><svg t="1535709391292" class="icon" style="" viewBox="0 0 1024 1024" version="1.1" xmlns="http://www.w3.org/2000/svg" p-id="19289" xmlns:xlink="http://www.w3.org/1999/xlink" width="200" height="200"><defs><style type="text/css"></style></defs><path d="M513.360126 1023.998089a511.719837 511.719837 0 0 0 510.627586-510.627586A500.797322 500.797322 0 0 0 928.415704 218.462592a386.657038 386.657038 0 0 1-60.073834 19.114402 459.291764 459.291764 0 0 1 92.84138 275.793509A450.553752 450.553752 0 1 1 510.629497 62.81675 466.664462 466.664462 0 0 1 794.614893 163.850016a394.848925 394.848925 0 0 1 24.575659-60.073834A500.251197 500.251197 0 0 0 510.629497 0.012288a511.9929 511.9929 0 1 0 2.730629 1023.985801z" fill="#333333" p-id="19290"></path><path d="M794.614893 163.850016a34.952049 34.952049 0 0 0 38.228803 10.922515l51.881947-21.84503-21.84503 51.881947a34.405923 34.405923 0 0 0 5.461257 35.498174c2.730629 2.730629 49.151318 5.461258 57.343205-10.922515l5.461258-10.922515 49.151318-114.68641a58.435456 58.435456 0 0 0 2.730629-16.383773 24.575659 24.575659 0 0 0-2.730629-13.653144c-2.730629-5.461258-10.922515-16.383773-19.114401-16.383772a75.638418 75.638418 0 0 0-24.575659-2.730629l-111.955781 46.42069-13.653144 5.461257a66.627343 66.627343 0 0 0-16.383773 57.343205z" fill="#333333" p-id="19291"></path><path d="M391.574082 486.064215l-122.332171 96.391196a25.121785 25.121785 0 0 1-28.944665-4.095943A27.306288 27.306288 0 0 1 243.027875 546.138048l93.387505-78.095984L245.758504 394.58815c-7.099635-5.73432-16.11071-24.575659-9.830264-33.586735A23.483408 23.483408 0 0 1 269.241911 354.994032l122.605234 96.391197c3.549817 3.003692 13.653144 8.464949 13.653144 16.929898s-10.103327 14.745396-13.926207 17.749088zM632.415542 486.064215l122.33217 96.391196a25.121785 25.121785 0 0 0 28.944666-4.095943 27.306288 27.306288 0 0 0-2.730629-32.22142l-93.387505-78.095984 90.929939-74.273103c7.099635-5.73432 16.11071-24.575659 9.830264-33.586734a23.483408 23.483408 0 0 0-33.586735-5.188195l-122.605233 96.391197c-3.549817 3.003692-13.653144 8.464949-13.653144 16.929898s9.557201 14.745396 13.926207 17.749088zM421.337936 687.038494h220.90787a22.118093 22.118093 0 0 1 22.118093 22.118094 32.494483 32.494483 0 0 1-32.494483 32.494482h-210.53148a27.306288 27.306288 0 0 1-27.306288-27.306288 27.306288 27.306288 0 0 1 27.306288-27.306288z" fill="#333333" p-id="19292"></path></svg>